<svg width="60" height="62" viewBox="0 0 60 62" fill="none" xmlns="http://www.w3.org/2000/svg">
<path d="M1 31.7547C19.213 40.6604 24.0172 54.9623 24.1426 61H33.7383C29.5363 55.1509 21.7343 41.1132 24.1426 31.7547C26.5509 22.3962 41.5779 27.8553 48.7904 31.7547L24.1426 1L1 31.7547Z" fill="#D9D9D9"/>
<path d="M29.599 34.5849C24.3307 36.8491 33.0484 53.1384 38.0658 61H48.7904C41.5654 53 45.78 42.8239 48.7904 38.7358C44.5884 36.4088 34.8672 32.3208 29.599 34.5849Z" fill="#D9D9D9"/>
<path d="M48.7904 50.1857C48.7904 54.81 51.0262 58.7965 52.9825 61H58.4323C59.1031 57.8805 59.2708 51.8673 58.4323 48.5041C57.4107 44.4063 53.3179 42.1142 51.3057 43.4594C49.2935 44.8047 48.7904 48.2239 48.7904 50.1857Z" fill="#D9D9D9"/>
<path d="M1 31.7547C19.213 40.6604 24.0172 54.9623 24.1426 61H33.7383C29.5363 55.1509 21.7343 41.1132 24.1426 31.7547C26.5509 22.3962 41.5779 27.8553 48.7904 31.7547L24.1426 1L1 31.7547Z" stroke="black" stroke-width="0.448819"/>
<path d="M29.599 34.5849C24.3307 36.8491 33.0484 53.1384 38.0658 61H48.7904C41.5654 53 45.78 42.8239 48.7904 38.7358C44.5884 36.4088 34.8672 32.3208 29.599 34.5849Z" stroke="black" stroke-width="0.448819"/>
<path d="M48.7904 50.1857C48.7904 54.81 51.0262 58.7965 52.9825 61H58.4323C59.1031 57.8805 59.2708 51.8673 58.4323 48.5041C57.4107 44.4063 53.3179 42.1142 51.3057 43.4594C49.2935 44.8047 48.7904 48.2239 48.7904 50.1857Z" stroke="black" stroke-width="0.448819"/>
</svg>
